<svg viewBox="113.18 227.525 244.471 43.783" xmlns="http://www.w3.org/2000/svg">
  <defs></defs>
  <path d="M 328.873 236.799 C 328.329 235.228 327.788 233.693 327.53 233.071 C 326.839 231.403 325.438 231.945 324.989 230.861 C 324.497 229.673 325.758 228.827 326.48 228.517 C 327.172 228.219 328.67 227.915 329.148 229.068 C 329.625 230.221 328.255 230.805 328.943 232.494 C 329.109 232.903 329.863 234.462 330.648 236.079 C 331.876 235.678 333.178 235.442 334.529 235.397 C 334.297 234.52 333.474 234.385 333.479 233.627 C 333.486 232.655 334.605 232.437 335.194 232.433 C 335.759 232.43 336.882 232.658 336.876 233.601 C 336.87 234.409 336.049 234.527 335.802 235.412 C 337.085 235.484 338.321 235.729 339.488 236.124 C 340.225 234.608 340.945 233.107 341.207 232.476 C 341.898 230.808 340.525 230.201 340.974 229.117 C 341.466 227.929 342.956 228.223 343.686 228.513 C 344.386 228.792 345.66 229.635 345.182 230.788 C 344.705 231.941 343.322 231.386 342.614 233.066 C 342.44 233.477 341.859 235.146 341.263 236.865 C 342.394 237.432 343.438 238.147 344.369 238.986 C 344.842 238.183 344.329 237.501 344.867 236.955 C 345.548 236.265 346.5 236.892 346.925 237.303 C 347.331 237.696 347.977 238.646 347.315 239.316 C 346.745 239.895 346.068 239.392 345.268 239.871 C 346.16 240.832 346.918 241.917 347.514 243.098 C 349.103 242.548 350.666 241.998 351.296 241.738 C 352.964 241.047 352.423 239.647 353.507 239.198 C 354.696 238.706 355.542 239.967 355.852 240.688 C 356.15 241.38 356.454 242.877 355.301 243.354 C 354.147 243.832 353.563 242.462 351.873 243.149 C 351.462 243.317 349.886 244.078 348.258 244.868 C 348.69 246.131 348.945 247.475 348.996 248.87 C 349.86 248.634 349.996 247.81 350.746 247.816 C 351.711 247.822 351.928 248.949 351.932 249.542 C 351.935 250.111 351.708 251.242 350.772 251.236 C 349.973 251.23 349.853 250.41 348.985 250.158 C 348.917 251.4 348.687 252.598 348.316 253.734 C 349.803 254.455 351.259 255.152 351.878 255.408 C 353.546 256.099 354.154 254.726 355.238 255.175 C 356.427 255.667 356.133 257.157 355.842 257.886 C 355.563 258.586 354.719 259.859 353.566 259.382 C 352.412 258.904 352.968 257.523 351.287 256.814 C 350.885 256.645 349.279 256.085 347.599 255.504 C 347.02 256.693 346.277 257.787 345.4 258.759 C 346.166 259.156 346.822 258.688 347.346 259.208 C 348.032 259.889 347.403 260.847 346.993 261.274 C 346.599 261.684 345.649 262.335 344.984 261.674 C 344.426 261.12 344.884 260.462 344.477 259.691 C 343.533 260.559 342.47 261.299 341.316 261.883 C 341.847 263.415 342.369 264.894 342.621 265.502 C 343.312 267.17 344.713 266.629 345.162 267.712 C 345.654 268.901 344.393 269.747 343.671 270.057 C 342.979 270.354 341.481 270.658 341.004 269.505 C 340.526 268.353 341.896 267.768 341.209 266.079 C 341.047 265.681 340.328 264.193 339.566 262.624 C 338.322 263.053 336.999 263.312 335.624 263.372 C 335.878 264.192 336.66 264.339 336.655 265.077 C 336.648 266.049 335.529 266.267 334.94 266.271 C 334.375 266.274 333.252 266.046 333.258 265.103 C 333.264 264.319 334.038 264.184 334.308 263.369 C 332.997 263.305 331.733 263.061 330.539 262.66 C 329.843 264.095 329.183 265.476 328.935 266.074 C 328.244 267.742 329.617 268.349 329.168 269.433 C 328.675 270.621 327.185 270.327 326.455 270.037 C 325.756 269.758 324.481 268.915 324.959 267.762 C 325.437 266.609 326.819 267.164 327.528 265.484 C 327.693 265.093 328.227 263.564 328.791 261.936 C 327.651 261.371 326.599 260.655 325.66 259.815 C 325.331 260.55 325.746 261.18 325.244 261.689 C 324.562 262.38 323.61 261.752 323.186 261.342 C 322.779 260.949 322.134 259.998 322.795 259.328 C 323.329 258.787 323.955 259.191 324.688 258.855 C 323.785 257.873 323.021 256.763 322.427 255.555 C 320.912 256.08 319.459 256.593 318.858 256.842 C 317.189 257.533 317.731 258.932 316.647 259.381 C 315.458 259.874 314.612 258.612 314.301 257.891 C 314.004 257.199 313.699 255.703 314.853 255.225 C 316.006 254.747 316.591 256.117 318.28 255.43 C 318.676 255.269 320.148 254.559 321.708 253.802 C 321.307 252.599 321.066 251.323 321.009 250 C 320.257 250.279 320.099 251.019 319.387 251.014 C 318.422 251.007 318.205 249.881 318.202 249.288 C 318.198 248.719 318.425 247.588 319.361 247.594 C 320.118 247.6 320.266 248.335 321.016 248.627 C 321.088 247.286 321.349 245.995 321.773 244.78 C 320.359 244.095 319.008 243.45 318.417 243.206 C 316.749 242.515 316.141 243.887 315.057 243.438 C 313.868 242.946 314.162 241.456 314.453 240.727 C 314.732 240.028 315.576 238.754 316.729 239.232 C 317.883 239.709 317.327 241.091 319.008 241.799 C 319.396 241.963 320.901 242.488 322.514 243.046 C 323.083 241.93 323.797 240.899 324.633 239.98 C 323.863 239.573 323.202 240.048 322.676 239.525 C 321.99 238.844 322.619 237.887 323.03 237.46 C 323.423 237.05 324.373 236.399 325.039 237.06 C 325.6 237.618 325.132 238.28 325.553 239.057 C 326.541 238.154 327.658 237.391 328.873 236.799 Z" style="fill: rgb(232, 40, 40);"></path>
  <g transform="matrix(0.038139, 0, 0, 0.038139, 278.06311, 191.615219)" style="">
    <g opacity="0.2">
      <g id="circle833" transform="matrix(0.431746,0,0,0.431746,636.17,595.185)">
        <circle cx="1699.7" cy="1707.48" r="93.671"></circle>
      </g>
      <g id="circle835" transform="matrix(0.431746,0,0,0.431746,817.472,581.312)">
        <circle cx="1569" cy="2155.61" r="164.625"></circle>
      </g>
      <g id="circle837" transform="matrix(0.370944,0,0,0.370944,701.54,791.604)">
        <circle cx="1923.77" cy="2525.32" r="104.875"></circle>
      </g>
      <g id="circle839" transform="matrix(0.187408,0,0,0.187408,1235.46,1065.38)">
        <circle cx="2485.37" cy="1953.82" r="172.094"></circle>
      </g>
      <g id="circle8391" transform="matrix(0.183259,0,0,0.183259,830.801,1185.47)">
        <circle cx="2485.37" cy="1953.82" r="172.094"></circle>
      </g>
      <g id="circle841" transform="matrix(0.431746,0,0,0.431746,618.83,618.83)">
        <circle cx="2144.1" cy="1513.29" r="41.389"></circle>
      </g>
      <g id="circle8411" transform="matrix(0.320652,0,0,0.320652,1000,822.788)">
        <circle cx="2144.1" cy="1513.29" r="41.389"></circle>
      </g>
      <g id="circle8412" transform="matrix(0.431746,0,0,0.431746,353.652,1040.56)">
        <circle cx="2144.1" cy="1513.29" r="41.389"></circle>
      </g>
      <g id="circle8413" transform="matrix(0.431746,0,0,0.431746,300.196,771.909)">
        <circle cx="2144.1" cy="1513.29" r="41.389"></circle>
      </g>
      <g id="circle843" transform="matrix(0.226964,0,0,0.226964,1222.74,1217.1)">
        <circle cx="2044.95" cy="1885.88" r="131.015"></circle>
      </g>
      <g id="circle845" transform="matrix(0.33076,0,0,0.33076,834.516,979.057)">
        <circle cx="2246.87" cy="2413.02" r="71.265"></circle>
      </g>
    </g>
  </g>
  <text style="fill: rgb(255, 255, 255); font-family: Arial, sans-serif; font-size: 25.2px; font-weight: 700; white-space: pre;" x="113.646" y="258.614">Covid visualizer</text>
</svg>